<?xml version="1.0" encoding="utf-8"?>
<!-- Generator: Adobe Illustrator 24.1.1, SVG Export Plug-In . SVG Version: 6.00 Build 0)  -->
<svg version="1.1" id="Layer_1" xmlns="http://www.w3.org/2000/svg" xmlns:xlink="http://www.w3.org/1999/xlink" x="0px" y="0px"
	 viewBox="0 0 110 64" style="enable-background:new 0 0 110 64;" xml:space="preserve">
<style type="text/css">
	.st0{clip-path:url(#SVGID_2_);}
	.st1{fill:#FFFFFF;}
	.st2{fill:url(#SVGID_3_);}
	.st3{fill:url(#SVGID_4_);}
</style>
<g>
	<defs>
		<rect id="SVGID_1_" width="109.5" height="63.2"/>
	</defs>
	<clipPath id="SVGID_2_">
		<use xlink:href="#SVGID_1_"  style="overflow:visible;"/>
	</clipPath>
	<g class="st0">
		<path class="st1" d="M48.5,23.2H36.9v11.6h11.6V23.2z"/>
		<path class="st1" d="M71.6,0H60v11.6h11.6V0z"/>
		
			<linearGradient id="SVGID_3_" gradientUnits="userSpaceOnUse" x1="36.9" y1="54.4" x2="60.0662" y2="54.4" gradientTransform="matrix(1 0 0 -1 0 66)">
			<stop  offset="0" style="stop-color:#6D13D6"/>
			<stop  offset="1" style="stop-color:#18E1F9"/>
		</linearGradient>
		<path class="st2" d="M60,0v11.6H48.5v11.6c-6.4,0-11.6-5.2-11.6-11.6S42.1,0,48.5,0H60z"/>
		
			<linearGradient id="SVGID_4_" gradientUnits="userSpaceOnUse" x1="48.4712" y1="42.8" x2="71.6374" y2="42.8" gradientTransform="matrix(1 0 0 -1 0 66)">
			<stop  offset="0" style="stop-color:#9E13D6"/>
			<stop  offset="1" style="stop-color:#FF3FDE"/>
		</linearGradient>
		<path class="st3" d="M71.6,23.2c0,6.4-5.2,11.6-11.6,11.6H48.5V23.2h11.6V11.6C66.5,11.6,71.6,16.8,71.6,23.2z"/>
		<path class="st1" d="M0,60.6l2.4-2.8c1.5,1.2,3.2,1.9,5,1.9c1.1,0,1.8-0.4,1.8-1.1c0-0.6-0.5-1-2.6-1.5c-3.3-0.8-5.8-1.7-5.8-4.9
			c0-2.9,2.3-4.9,6-4.9c2.6,0,4.7,0.7,6.4,2.1l-2.1,3c-1.4-1-3-1.5-4.3-1.5c-1,0-1.5,0.4-1.5,1c0,0.7,0.5,1,2.7,1.5
			c3.6,0.8,5.8,1.9,5.8,4.8c0,3.2-2.5,5-6.2,5C4.5,63.1,1.9,62.3,0,60.6z"/>
		<path class="st1" d="M15.4,56.1v-8.7h4.3V56c0,2.2,1.1,3.3,2.8,3.3s2.8-1,2.8-3.2v-8.7h4.3V56c0,5-2.8,7.2-7.2,7.2
			S15.4,60.9,15.4,56.1z"/>
		<path class="st1" d="M32.3,47.4h6.6c3.9,0,6.4,2,6.4,5.4c0,3.6-2.8,5.6-6.6,5.6h-2.1v4.4h-4.3V47.4z M38.6,55.1
			c1.5,0,2.4-0.8,2.4-2c0-1.3-0.9-2-2.5-2h-2v4.1h2.1V55.1z"/>
		<path class="st1" d="M47.1,47.4h7.3c2.4,0,4,0.6,5,1.7c0.9,0.9,1.4,2.1,1.4,3.6c0,2.4-1.3,3.9-3.2,4.7l3.7,5.4h-4.9l-3.1-4.7h-1.8
			v4.7h-4.3V47.4H47.1z M54.2,54.8c1.5,0,2.3-0.7,2.3-1.8c0-1.2-0.9-1.8-2.3-1.8h-2.8v3.7h2.8V54.8z"/>
		<path class="st1" d="M63,47.4h12.4v3.8h-8.1v2.6h7.3v3.6h-7.3v5.5H63V47.4z"/>
		<path class="st1" d="M80.9,47.3H85l6.6,15.6H87l-1.1-2.8h-6l-1.1,2.8h-4.5L80.9,47.3z M84.6,56.8l-1.7-4.4l-1.7,4.4H84.6z"/>
		<path class="st1" d="M93.1,47.4h4.5l3.7,6l3.7-6h4.5v15.4h-4.3V54l-4,6h-0.1l-3.9-6v8.8H93L93.1,47.4L93.1,47.4z"/>
	</g>
</g>
</svg>
